<svg width="120" height="44" viewBox="0 0 120 44" fill="none" xmlns="http://www.w3.org/2000/svg">
<g filter="url(#filter0_d_848_772)">
<path d="M41.3371 33.6474C39.6425 33.6474 38.3264 33.1298 37.3889 32.0945C36.4695 31.0422 36.0098 29.4383 36.0098 27.2828V19.1361H40.9315V27.4101C40.9315 28.0381 41.1298 28.5473 41.5264 28.9376C41.9231 29.328 42.4549 29.5232 43.1219 29.5232C43.789 29.5232 44.3298 29.328 44.7445 28.9376C45.1592 28.5473 45.3665 28.0211 45.3665 27.3592V19.1361H50.2882V33.1892H46.3941V27.2828H46.6645C46.6645 28.7255 46.4662 29.922 46.0696 30.8725C45.691 31.8059 45.1231 32.5018 44.3659 32.9601C43.6087 33.4183 42.6712 33.6474 41.5535 33.6474H41.3371ZM53.9224 38.2809V19.1361H57.8167V25.1952H57.3841C57.4381 23.8205 57.7266 22.6494 58.2494 21.682C58.7903 20.7145 59.5204 19.9847 60.4399 19.4925C61.3593 18.9834 62.414 18.7288 63.6038 18.7288C64.6315 18.7288 65.5599 18.907 66.3892 19.2634C67.2185 19.6029 67.9306 20.0951 68.5256 20.74C69.1205 21.368 69.5712 22.1148 69.8777 22.9803C70.2022 23.8459 70.3645 24.7964 70.3645 25.8317V26.4427C70.3645 27.478 70.2202 28.4369 69.9318 29.3195C69.6433 30.1851 69.2107 30.9488 68.6337 31.6108C68.0568 32.2557 67.3447 32.7564 66.4974 33.1128C65.6681 33.4692 64.7126 33.6474 63.6309 33.6474C62.4771 33.6474 61.4585 33.4353 60.5751 33.011C59.6917 32.5697 58.9886 31.9163 58.4658 31.0507C57.961 30.1681 57.6905 29.0649 57.6545 27.7411L58.8444 29.1158V38.2809H53.9224ZM62.1435 29.8287C62.7926 29.8287 63.3605 29.6759 63.8472 29.3704C64.352 29.0479 64.7396 28.6067 65.01 28.0466C65.2985 27.4865 65.4427 26.85 65.4427 26.1372C65.4427 25.4074 65.2985 24.7794 65.01 24.2533C64.7396 23.7102 64.361 23.2943 63.8743 23.0058C63.3875 22.7003 62.8106 22.5476 62.1435 22.5476C61.5486 22.5476 60.9897 22.6748 60.4669 22.9294C59.9621 23.184 59.5475 23.5574 59.2229 24.0496C58.8984 24.5418 58.7362 25.1358 58.7362 25.8317V26.6973C58.7362 27.3592 58.9075 27.9278 59.25 28.403C59.5925 28.8612 60.0252 29.2177 60.548 29.4722C61.0709 29.7099 61.6027 29.8287 62.1435 29.8287ZM73.0687 33.1892V19.1361H76.9628V25.2461H76.9088C76.9088 23.2774 77.3414 21.7329 78.2068 20.6127C79.0902 19.4925 80.3522 18.9325 81.9927 18.9325H82.5877V22.904H81.4519C80.3522 22.904 79.4958 23.184 78.8829 23.7441C78.2879 24.3042 77.9905 25.1104 77.9905 26.1626V33.1892H73.0687ZM91.914 33.6983C90.5979 33.6983 89.4261 33.5117 88.3984 33.1383C87.3708 32.7649 86.4965 32.2472 85.7753 31.5853C85.0722 30.9234 84.5314 30.1596 84.1528 29.294C83.7922 28.4284 83.6119 27.5035 83.6119 26.5191V25.9081C83.6119 24.8897 83.8012 23.9393 84.1798 23.0567C84.5764 22.1742 85.1353 21.4019 85.8564 20.74C86.5776 20.0781 87.452 19.5604 88.4796 19.187C89.5072 18.8136 90.652 18.627 91.914 18.627C93.194 18.627 94.3388 18.8136 95.3484 19.187C96.376 19.5604 97.2504 20.0781 97.9715 20.74C98.6926 21.4019 99.2425 22.1742 99.6211 23.0567C100.018 23.9393 100.216 24.8897 100.216 25.9081V26.5191C100.216 27.5035 100.027 28.4284 99.6481 29.294C99.2876 30.1596 98.7467 30.9234 98.0256 31.5853C97.3225 32.2472 96.4571 32.7649 95.4295 33.1383C94.4019 33.5117 93.23 33.6983 91.914 33.6983ZM91.914 29.8287C92.6712 29.8287 93.2931 29.6759 93.7799 29.3704C94.2847 29.0649 94.6633 28.6406 94.9157 28.0975C95.1681 27.5374 95.2943 26.9094 95.2943 26.2136C95.2943 25.4838 95.1591 24.8473 94.8886 24.3042C94.6362 23.7441 94.2577 23.3028 93.7529 22.9803C93.2481 22.6579 92.6351 22.4966 91.914 22.4966C91.1928 22.4966 90.5799 22.6579 90.0751 22.9803C89.5703 23.3028 89.1827 23.7441 88.9122 24.3042C88.6599 24.8473 88.5337 25.4838 88.5337 26.2136C88.5337 26.9094 88.6599 27.5374 88.9122 28.0975C89.1646 28.6406 89.5432 29.0649 90.048 29.3704C90.5528 29.6759 91.1748 29.8287 91.914 29.8287ZM109.725 33.6983C108.427 33.6983 107.301 33.5032 106.345 33.1128C105.39 32.7055 104.587 32.1624 103.938 31.4835C103.307 30.8046 102.83 30.0323 102.505 29.1667C102.199 28.3012 102.045 27.4016 102.045 26.4682V25.959C102.045 24.9746 102.208 24.0411 102.532 23.1586C102.875 22.276 103.37 21.4953 104.019 20.8164C104.668 20.1375 105.471 19.6029 106.426 19.2125C107.382 18.8221 108.481 18.627 109.725 18.627C111.096 18.627 112.303 18.8815 113.349 19.3907C114.395 19.8999 115.224 20.6042 115.837 21.5038C116.468 22.3863 116.82 23.4047 116.892 24.5588H112.078C112.024 23.9987 111.799 23.5235 111.402 23.1331C111.023 22.7427 110.465 22.5476 109.725 22.5476C109.094 22.5476 108.572 22.7003 108.157 23.0058C107.76 23.3113 107.463 23.7356 107.265 24.2787C107.066 24.8218 106.967 25.4668 106.967 26.2136C106.967 26.9094 107.048 27.5289 107.21 28.072C107.391 28.6151 107.679 29.0395 108.076 29.345C108.49 29.6335 109.04 29.7777 109.725 29.7777C110.23 29.7777 110.654 29.6929 110.996 29.5232C111.339 29.3534 111.609 29.1158 111.808 28.8103C112.006 28.4879 112.132 28.1145 112.186 27.6902H117C116.928 28.8782 116.567 29.922 115.918 30.8215C115.287 31.7211 114.44 32.4254 113.376 32.9346C112.312 33.4438 111.096 33.6983 109.725 33.6983Z" fill="#012547"/>
<path d="M14.9273 22.3555C21.0896 22.3555 26.0851 17.7754 26.0851 12.1255C26.0851 6.47563 21.0896 1.89551 14.9273 1.89551C8.76505 1.89551 3.76953 6.47563 3.76953 12.1255C3.76953 17.7754 8.76505 22.3555 14.9273 22.3555Z" fill="#012547"/>
<path d="M28.1843 18.1334C31.6905 18.1334 34.5327 15.4817 34.5327 12.2107C34.5327 8.93974 31.6905 6.28809 28.1843 6.28809C24.6782 6.28809 21.8359 8.93974 21.8359 12.2107C21.8359 15.4817 24.6782 18.1334 28.1843 18.1334Z" fill="#012547"/>
<path d="M34.55 1.89551H14.9277V11.5871H34.55V1.89551Z" fill="#012547"/>
<path d="M22.6235 16.9707C16.4612 16.9707 11.4657 21.5508 11.4657 27.2007C11.4657 32.8505 16.4612 37.4307 22.6235 37.4307C28.7857 37.4307 33.7812 32.8505 33.7812 27.2007C33.7812 21.5508 28.7857 16.9707 22.6235 16.9707Z" fill="#012547"/>
<path d="M9.34887 21.2241C5.84274 21.2241 3.00047 23.8757 3.00047 27.1467C3.00047 30.4177 5.84274 33.0693 9.34887 33.0693C12.855 33.0693 15.6973 30.4177 15.6973 27.1467C15.6973 23.8757 12.855 21.2241 9.34887 21.2241Z" fill="#012547"/>
<path d="M3.00077 37.4307H22.623V27.7391H3.00077V37.4307Z" fill="#012547"/>
<g filter="url(#filter1_d_848_772)">
<path d="M29.6061 2.11719L9.89258 21.2271H16.4212L10.7706 37.2619L27.7706 18.1519H21.8365L29.6061 2.11719Z" fill="#FFD400"/>
</g>
<path d="M27.7403 18.1592L25.1051 18.1621L13.3594 34.403L27.7403 18.1592Z" fill="url(#paint0_linear_848_772)"/>
<path d="M28.0388 5.27051L20.2832 18.1431C21.6396 18.6236 22.261 17.1825 22.261 17.1825L28.0388 5.27051Z" fill="url(#paint1_linear_848_772)"/>
</g>
<defs>
<filter id="filter0_d_848_772" x="0" y="0.895508" width="120" height="42.3857" filterUnits="userSpaceOnUse" color-interpolation-filters="sRGB">
<feFlood flood-opacity="0" result="BackgroundImageFix"/>
<feColorMatrix in="SourceAlpha" type="matrix" values="0 0 0 0 0 0 0 0 0 0 0 0 0 0 0 0 0 0 127 0" result="hardAlpha"/>
<feOffset dy="2"/>
<feGaussianBlur stdDeviation="1.5"/>
<feComposite in2="hardAlpha" operator="out"/>
<feColorMatrix type="matrix" values="0 0 0 0 0 0 0 0 0 0 0 0 0 0 0 0 0 0 0.65 0"/>
<feBlend mode="normal" in2="BackgroundImageFix" result="effect1_dropShadow_848_772"/>
<feBlend mode="normal" in="SourceGraphic" in2="effect1_dropShadow_848_772" result="shape"/>
</filter>
<filter id="filter1_d_848_772" x="7.63904" y="2.11719" width="24.22" height="39.6516" filterUnits="userSpaceOnUse" color-interpolation-filters="sRGB">
<feFlood flood-opacity="0" result="BackgroundImageFix"/>
<feColorMatrix in="SourceAlpha" type="matrix" values="0 0 0 0 0 0 0 0 0 0 0 0 0 0 0 0 0 0 127 0" result="hardAlpha"/>
<feOffset dy="2.25354"/>
<feGaussianBlur stdDeviation="1.12677"/>
<feComposite in2="hardAlpha" operator="out"/>
<feColorMatrix type="matrix" values="0 0 0 0 0 0 0 0 0 0 0 0 0 0 0 0 0 0 0.4 0"/>
<feBlend mode="normal" in2="BackgroundImageFix" result="effect1_dropShadow_848_772"/>
<feBlend mode="normal" in="SourceGraphic" in2="effect1_dropShadow_848_772" result="shape"/>
</filter>
<linearGradient id="paint0_linear_848_772" x1="20.0871" y1="18.6711" x2="21.127" y2="33.4939" gradientUnits="userSpaceOnUse">
<stop stop-color="#FFFC40"/>
<stop offset="1" stop-color="#999716"/>
</linearGradient>
<linearGradient id="paint1_linear_848_772" x1="23.2899" y1="6.06119" x2="25.1995" y2="17.5305" gradientUnits="userSpaceOnUse">
<stop stop-color="#FFFC40"/>
<stop offset="1" stop-color="#999716"/>
</linearGradient>
</defs>
</svg>
