<svg width="24" height="25" viewBox="0 0 24 25" fill="none" xmlns="http://www.w3.org/2000/svg">
<path d="M15.5 13.2559C19.0899 13.2559 22 12.3604 22 11.2559C22 10.1513 19.0899 9.25586 15.5 9.25586C11.9101 9.25586 9 10.1513 9 11.2559C9 12.3604 11.9101 13.2559 15.5 13.2559Z" stroke="#012547" stroke-width="1.5" stroke-linecap="round" stroke-linejoin="round"/>
<path d="M22 15.7559C22 16.8609 19.09 17.7559 15.5 17.7559C11.91 17.7559 9 16.8609 9 15.7559" stroke="#012547" stroke-width="1.5" stroke-linecap="round" stroke-linejoin="round"/>
<path d="M22 11.2559V20.0559C22 21.2709 19.09 22.2559 15.5 22.2559C11.91 22.2559 9 21.2709 9 20.0559V11.2559" stroke="#012547" stroke-width="1.5" stroke-linecap="round" stroke-linejoin="round"/>
<path d="M8.5 6.25586C12.0899 6.25586 15 5.36043 15 4.25586C15 3.15129 12.0899 2.25586 8.5 2.25586C4.91015 2.25586 2 3.15129 2 4.25586C2 5.36043 4.91015 6.25586 8.5 6.25586Z" stroke="#012547" stroke-width="1.5" stroke-linecap="round" stroke-linejoin="round"/>
<path d="M6 11.2559C4.108 11.0259 2.37 10.4309 2 9.25586M6 16.2559C4.108 16.0259 2.37 15.4309 2 14.2559" stroke="#012547" stroke-width="1.5" stroke-linecap="round" stroke-linejoin="round"/>
<path d="M6 21.2559C4.108 21.0259 2.37 20.4299 2 19.2559V4.25586M15 6.25586V4.25586" stroke="#012547" stroke-width="1.5" stroke-linecap="round" stroke-linejoin="round"/>
</svg>
