<svg width="24" height="25" viewBox="0 0 24 25" fill="none" xmlns="http://www.w3.org/2000/svg">
<path d="M14.17 21.1458C18.354 20.8688 21.686 17.4888 21.96 13.2458C22.013 12.4158 22.013 11.5558 21.96 10.7258C21.686 6.4838 18.354 3.1058 14.17 2.8268C12.7249 2.73156 11.2751 2.73156 9.82997 2.8268C5.64597 3.1048 2.31397 6.4838 2.03997 10.7268C1.987 11.566 1.987 12.4076 2.03997 13.2468C2.13997 14.7918 2.82297 16.2228 3.62797 17.4308C4.09497 18.2758 3.78697 19.3308 3.29997 20.2538C2.94997 20.9188 2.77397 21.2508 2.91497 21.4908C3.05497 21.7308 3.36997 21.7388 3.99897 21.7538C5.24397 21.7838 6.08297 21.4318 6.74897 20.9408C7.12597 20.6618 7.31497 20.5228 7.44497 20.5068C7.57497 20.4908 7.83197 20.5968 8.34397 20.8068C8.80397 20.9968 9.33897 21.1138 9.82897 21.1468C11.254 21.2408 12.743 21.2408 14.171 21.1468" stroke="#012547" stroke-width="1.5" stroke-linecap="round" stroke-linejoin="round"/>
<path d="M7.5 15.2559L9.342 9.72986C9.38824 9.59195 9.47664 9.47206 9.59471 9.38712C9.71278 9.30218 9.85455 9.25648 10 9.25648C10.1455 9.25648 10.2872 9.30218 10.4053 9.38712C10.5234 9.47206 10.6118 9.59195 10.658 9.72986L12.5 15.2559M15.5 9.25586V15.2559M8.5 13.2559H11.5" stroke="#012547" stroke-width="1.5" stroke-linecap="round" stroke-linejoin="round"/>
</svg>
