<svg width="20" height="22" viewBox="0 0 20 22" fill="none" xmlns="http://www.w3.org/2000/svg">
<path d="M11 1.25586H11.273C14.533 1.25586 16.165 1.25586 17.297 2.05386C17.621 2.28186 17.909 2.55386 18.152 2.85886C19 3.92486 19 5.45886 19 8.52886V11.0739C19 14.0369 19 15.5189 18.531 16.7019C17.777 18.6049 16.183 20.1049 14.161 20.8149C12.904 21.2559 11.331 21.2559 8.181 21.2559C6.383 21.2559 5.483 21.2559 4.765 21.0039C3.61 20.5979 2.699 19.7409 2.268 18.6539C2 17.9779 2 17.1309 2 15.4379V11.2559" stroke="#012547" stroke-width="1.5" stroke-linecap="round" stroke-linejoin="round"/>
<path d="M19 11.2559C19 12.1398 18.6488 12.9876 18.0238 13.6126C17.3987 14.2377 16.551 14.5889 15.667 14.5889C15.001 14.5889 14.216 14.4729 13.569 14.6459C13.2864 14.7219 13.0288 14.8708 12.8218 15.0777C12.6149 15.2846 12.466 15.5423 12.39 15.8249C12.217 16.4719 12.333 17.2569 12.333 17.9229C12.333 18.3606 12.2468 18.794 12.0793 19.1983C11.9118 19.6027 11.6663 19.9701 11.3568 20.2796C11.0473 20.5891 10.6799 20.8347 10.2755 21.0021C9.87111 21.1696 9.4377 21.2559 9 21.2559M9 5.25586H1M5 1.25586V9.25586" stroke="#012547" stroke-width="1.5" stroke-linecap="round" stroke-linejoin="round"/>
</svg>
